<svg xmlns="http://www.w3.org/2000/svg" width="320" height="72" viewBox="0 0 320 72" role="img">
  <title>rmarchand.dev.br</title>
  <desc>Logo de Rodrigo Marchand — linha de fluxo conectando agronegócio, logística e tecnologia</desc>
  <defs>
    <marker id="arrow" viewBox="0 0 10 10" refX="8" refY="5" markerWidth="5" markerHeight="5" orient="auto-start-reverse">
      <path d="M2 1L8 5L2 9" fill="none" stroke="#00d4ff" stroke-width="1.8" stroke-linecap="round" stroke-linejoin="round"/>
    </marker>
  </defs>
  <path d="M 22 46 C 22 46 30 22 52 22" fill="none" stroke="#f0f0f0" stroke-width="1.4" opacity="0.4"/>
  <line x1="52" y1="22" x2="192" y2="22" stroke="#f0f0f0" stroke-width="1.4" opacity="0.4"/>
  <line x1="192" y1="22" x2="218" y2="22" stroke="#00d4ff" stroke-width="1.4" marker-end="url(#arrow)"/>
  <circle cx="22" cy="46" r="3.5" fill="none" stroke="#f0f0f0" stroke-width="1.4" opacity="0.45"/>
  <line x1="17" y1="41" x2="22" y2="44" stroke="#f0f0f0" stroke-width="1.1" opacity="0.3"/>
  <line x1="22" y1="39" x2="22" y2="43" stroke="#f0f0f0" stroke-width="1.1" opacity="0.3"/>
  <line x1="27" y1="41" x2="22" y2="44" stroke="#f0f0f0" stroke-width="1.1" opacity="0.3"/>
  <circle cx="52" cy="22" r="3.5" fill="#00d4ff" opacity="0.9"/>
  <circle cx="122" cy="22" r="3" fill="none" stroke="#00d4ff" stroke-width="1.4" opacity="0.65"/>
  <circle cx="192" cy="22" r="2.5" fill="none" stroke="#00d4ff" stroke-width="1.4" opacity="0.45"/>
  <line x1="52" y1="26" x2="52" y2="33" stroke="#00d4ff" stroke-width="0.8" opacity="0.4"/>
  <line x1="122" y1="26" x2="122" y2="33" stroke="#00d4ff" stroke-width="0.8" opacity="0.4"/>
  <line x1="192" y1="26" x2="192" y2="33" stroke="#00d4ff" stroke-width="0.8" opacity="0.4"/>
  <text x="52" y="41" font-family="monospace" font-size="7" fill="#00d4ff" text-anchor="middle" opacity="0.65">agronegócio</text>
  <text x="122" y="41" font-family="monospace" font-size="7" fill="#00d4ff" text-anchor="middle" opacity="0.55">logística</text>
  <text x="192" y="41" font-family="monospace" font-size="7" fill="#00d4ff" text-anchor="middle" opacity="0.45">tecnologia</text>
  <text x="22" y="64" font-family="monospace" font-size="19" font-weight="700" fill="#f0f0f0" letter-spacing="-0.5">rmarchand</text>
  <text x="196" y="64" font-family="monospace" font-size="19" font-weight="700" fill="#00d4ff" letter-spacing="-0.5">.dev.br</text>
</svg>
